<?xml version="1.0" encoding="utf-8"?>
<!-- Generator: Adobe Illustrator 16.0.0, SVG Export Plug-In . SVG Version: 6.00 Build 0)  -->
<!DOCTYPE svg PUBLIC "-//W3C//DTD SVG 1.1//EN" "http://www.w3.org/Graphics/SVG/1.1/DTD/svg11.dtd">
<svg version="1.1" id="Layer_1" xmlns="http://www.w3.org/2000/svg" xmlns:xlink="http://www.w3.org/1999/xlink" x="0px" y="0px"
	 width="2500px" height="2310px" viewBox="0 0 2500 2310" enable-background="new 0 0 2500 2310" xml:space="preserve">
<g opacity="0.6">
	<path fill="#1C355E" d="M1220.957,67.725c51.599-26.906,114.582,35.511,87.168,87.062c-15.921,42.021-76.289,53.196-107.125,21.165
		C1168.329,145.21,1178.983,84.45,1220.957,67.725 M665.974,127.549c31.345-12.902,71.021,15.815,67.827,49.977
		c3.326,37.086-42.022,64.382-73.971,46.757C617.5,207.888,622.342,139.173,665.974,127.549 M1802.645,225.324
		c-48.98-5.918-56.734-82.931-9.576-98.438c36.577-17.838,70.136,15.614,75.486,50.284
		C1860.884,206.775,1836.097,233.882,1802.645,225.324 M792.253,363.759c52.401-33.144,127.178,16.217,119.116,77.084
		c-2.723,61.458-84.352,97.064-130.408,55.517C736.428,463.723,743.176,388.854,792.253,363.759 M1592.217,398.927
		c23.379-60.251,118.109-62.074,144.72-3.421c26.303,45.645-6.048,102.166-52.911,117.686
		C1621.95,524.779,1562.99,457.674,1592.217,398.927 M1154.125,509.77c-0.51-51.786,46.661-90.376,95.881-93.903
		c32.646,6.546,68.229,20.455,82.23,53.396c26.103,45.443,2.925,108.015-44.234,128.871c-21.566,12.086-47.063,7.552-70.549,6.145
		C1181.552,586.652,1151.32,552.087,1154.125,509.77 M328.781,585.231c47.869-29.428,112.453,24.277,94.33,76.277
		c-9.979,44.981-70.442,63.281-105.007,34.564C281.209,669.168,287.056,604.479,328.781,585.231 M2101.095,585.137
		c40.612-31.535,107.635,4.641,102.794,55.918c2.722,46.758-55.223,82.021-95.538,57.943
		C2063.948,679.041,2059.416,610.729,2101.095,585.137 M1386.227,678.236c67.021-24.077,146.627,4.734,184.825,64.487
		c50.391,73.048,23.58,184.292-54.616,226.208c-81.025,49.573-199.337,7.553-229.262-82.931
		C1253.2,805,1302.692,703.626,1386.227,678.236 M992.997,686.202c74.278-35.063,174.242-5.647,210.121,70.336
		c42.224,73.958,9.576,176.94-65.909,215.127c-75.58,42.922-182.209,10.381-218.785-69.022
		C877.407,825.856,913.831,721.56,992.997,686.202 M599.26,820.814c5.646-47.858,50.792-79.001,96.342-82.222
		c49.077,5.918,88.281,44.034,93.619,93.703c-3.22,49.171-41.217,97.23-93.323,96.935
		C638.571,934.166,588.311,877.135,599.26,820.814 M1762.234,748.998c58.854-34.257,140.577,15.613,137.962,83.227
		c4.036,71.639-86.411,122.123-145.018,80.103C1694.3,877.336,1699.047,778.792,1762.234,748.998 M832.972,1001.483
		c68.833-18.939,147.538,13.507,181.297,76.775c36.979,63.685,21.863,152.154-35.57,198.864
		c-73.663,68.513-209.517,41.004-248.722-52.498C684.925,1138.913,739.649,1024.045,832.972,1001.483 M1578.818,1001.128
		c66.914-19.141,145.525,6.653,181.498,67.614c47.563,69.721,24.857,173.709-45.951,218.654
		c-74.172,52.189-189.063,24.786-229.877-56.817C1435.008,1146.168,1484.795,1026.874,1578.818,1001.128 M390.252,1080.674
		c59.457-22.49,125.366,43.123,101.277,102.071c-14.714,53.705-90.399,73.557-129.498,33.962
		C316.281,1179.525,333.221,1096.796,390.252,1080.674 M2001.875,1166.221c-1.717-49.266,34.327-92.896,84.849-95.62
		c40.72,6.451,80.314,39.3,77.096,83.63c3.729,58.547-66.82,98.344-116.702,70.832
		C2023.74,1213.179,2011.748,1189.196,2001.875,1166.221 M97.899,1109.592c35.771-15.613,80.02,15.389,71.852,55.113
		c-1.918,44.98-68.324,62.275-92.722,24.693C55.475,1163.297,68.378,1123.051,97.899,1109.592z M2353.379,1108.693
		c25.188-17.934,65.602-5.043,75.58,24.384c16.927,32.138-14.11,76.172-50.283,70.738
		C2327.895,1208.443,2311.464,1131.053,2353.379,1108.693 M1027.267,1324.613c94.129-24.479,195.313,54.013,195.904,150.935
		c6.143,97.94-93.515,184.79-189.868,162.169c-74.479-11.99-132.919-83.734-130.504-158.995
		C902.598,1406.739,956.919,1339.836,1027.267,1324.613 M1400.041,1324.412c95.536-26.704,199.738,53.196,198.224,152.355
		c5.043,96.129-91.501,180.055-185.843,160.984c-88.778-11.482-154.285-109.02-129.498-195.171
		C1295.437,1385.172,1343.4,1338.486,1400.041,1324.412 M681.303,1384.071c66.109-11.281,128.089,62.477,101.277,125.249
		c-19.554,66.891-116.902,85.037-159.941,30.396C572.154,1487.244,609.843,1391.314,681.303,1384.071 M1774.52,1387.02
		c58.949-24.692,131.311,26.303,126.775,90.281c2.367,70.432-86.968,118.998-144.613,77.89
		C1691.388,1518.28,1703.273,1409.663,1774.52,1387.02 M2080.084,1693.506c-23.082-43.027,18.844-100.06,66.618-92.093
		c23.78-0.403,40.411,18.335,55.634,34.055c3.125,25.497,8.371,55.918-12.795,75.568
		C2160.8,1747.412,2095.697,1737.03,2080.084,1693.506 M328.579,1613.392c44.65-29.724,108.902,14.606,98.864,66.81
		c-5.339,46.165-63.495,72.551-101.799,46.354C284.534,1702.773,286.05,1635.064,328.579,1613.392 M1210.683,1710.029
		c58.451-25.793,132.919,25.095,127.379,89.478c4.333,71.143-87.772,120.407-144.922,77.688
		C1129.656,1840.511,1140.24,1732.592,1210.683,1710.029 M802.125,1805.343c49.786-26.194,116.596,19.046,112.062,74.765
		c1.515,45.75-43.135,84.74-88.282,77.981c-37.393-0.805-61.777-34.328-73.769-66.205
		C752.752,1857.142,767.051,1818.446,802.125,1805.343 M1629.704,1806.146c51.195-31.641,123.958,13.803,119.117,73.391
		c1.313,62.275-80.919,102.166-128.588,61.257C1574.082,1908.729,1579.717,1831.645,1629.704,1806.146 M1773.62,2161.936
		c-22.774-34.457,4.035-75.97,41.017-83.83c29.733,6.05,61.174,28.408,54.924,62.879
		C1865.229,2187.635,1796.998,2201.945,1773.62,2161.936 M631.209,2132.012c9.066-27.309,31.035-54.449,63.186-47.349
		c46.863,3.326,60.771,73.958,19.756,95.728C677.267,2205.26,634.476,2171.204,631.209,2132.012 M1182.357,2163.344
		c8.974-40.398,61.27-60.049,95.738-38.589c22.774,9.778,29.428,35.263,35.274,56.925c-3.125,11.281-5.918,22.574-8.664,33.854
		c-14.109,16.727-32.244,33.45-55.729,32.848C1205.332,2253.496,1165.963,2204.159,1182.357,2163.344"/>
</g>
</svg>
