<?xml version="1.0" encoding="UTF-8"?>
<!DOCTYPE svg PUBLIC "-//W3C//DTD SVG 1.1//EN" "http://www.w3.org/Graphics/SVG/1.1/DTD/svg11.dtd">
<!-- Creator: CorelDRAW X6 -->
<svg xmlns="http://www.w3.org/2000/svg" xml:space="preserve" width="200px" height="111px" version="1.1" style="shape-rendering:geometricPrecision; text-rendering:geometricPrecision; image-rendering:optimizeQuality; fill-rule:evenodd; clip-rule:evenodd"
viewBox="0 0 200 111"
 xmlns:xlink="http://www.w3.org/1999/xlink">
 <defs>
  <style type="text/css">
   <![CDATA[
    .fil0 {fill:#FEFEFE;fill-rule:nonzero}
   ]]>
  </style>
 </defs>
 <g id="Layer_x0020_1">
  <metadata id="CorelCorpID_0Corel-Layer"/>
  <path class="fil0" d="M115 63c0,-3 0,-11 -3,-11 0,0 -1,0 -1,0 -3,2 1,9 4,11zm-4 10c2,-2 3,-4 3,-8 -4,-3 -10,-7 -7,-13 0,-1 1,-2 2,-2 -1,-1 -3,-2 -5,-2 -6,1 -8,10 -8,15 0,3 0,6 2,9 3,5 9,6 13,1zm1 -23c4,2 5,6 5,11 0,1 0,2 0,3 1,1 4,3 5,1l1 2c-3,1 -5,0 -7,-1 -1,5 -3,8 -6,10 -5,4 -14,4 -18,-2 -3,-3 -4,-8 -4,-12 1,-8 5,-15 14,-16 4,0 7,1 10,4zm-22 34l26 0 0 4 -26 0 0 -4zm-32 -78c0,4 2,11 4,21 2,9 5,19 7,28 2,12 4,20 4,25 1,-1 1,-6 1,-13 0,-7 0,-12 0,-15 0,-9 2,-25 5,-33 4,-10 13,-13 20,-6 9,11 -2,29 -11,20 -2,-2 -2,-5 -1,-8 0,3 0,5 2,6 6,7 15,-6 8,-16 -6,-7 -13,-1 -15,6 -9,23 -3,73 -9,84 -2,-8 -4,-16 -6,-24 -4,-20 -11,-40 -11,-61 -1,4 -2,8 -3,13 -4,17 -5,34 -9,51 -3,11 -8,20 -15,21 -8,0 -16,-8 -16,-20 0,-9 3,-18 12,-18 4,0 9,5 9,8 0,1 -1,2 -2,3 -2,0 -2,-2 -1,-4 -1,-1 -4,-4 -6,-4 -5,0 -7,8 -6,15 0,11 7,18 13,17 4,-2 7,-10 10,-20 6,-25 5,-52 16,-76z"/>
  <path class="fil0" d="M152 102c17,0 34,-14 30,-34 -1,-11 -8,-17 -15,-20 9,-1 16,-9 14,-19 -2,-12 -15,-16 -22,-16 -10,0 -20,5 -18,17 0,3 3,7 6,7 0,0 1,-1 1,-1 0,-2 -1,-4 -1,-6 -2,-10 6,-13 13,-13 6,0 12,4 14,13 1,5 -2,11 -6,13 -2,2 -4,2 -6,2 -1,0 -3,0 -4,0 -3,0 -5,0 -4,3 0,0 1,2 1,2 1,-1 2,-1 2,-1 9,0 15,8 17,17 2,16 -8,32 -22,32 -7,0 -14,-2 -16,-11 -1,-4 1,-8 3,-9 -1,0 -2,-2 -3,-2 -2,1 -7,5 -6,13 2,11 16,13 22,13z"/>
 </g>
</svg>
