<?xml version="1.0" encoding="UTF-8"?>
<!DOCTYPE svg PUBLIC "-//W3C//DTD SVG 1.1//EN" "http://www.w3.org/Graphics/SVG/1.1/DTD/svg11.dtd">
<!-- Creator: CorelDRAW X6 -->
<svg xmlns="http://www.w3.org/2000/svg" xml:space="preserve" width="379px" height="290px" version="1.1" style="shape-rendering:geometricPrecision; text-rendering:geometricPrecision; image-rendering:optimizeQuality; fill-rule:evenodd; clip-rule:evenodd"
viewBox="0 0 379 290"
 xmlns:xlink="http://www.w3.org/1999/xlink">
 <defs>
  <style type="text/css">
   <![CDATA[
    .fil0 {fill:#FEFEFE}
   ]]>
  </style>
 </defs>
 <g id="Layer_x0020_1">
  <metadata id="CorelCorpID_0Corel-Layer"/>
  <path class="fil0" d="M189 289c-22,-1 -45,-12 -64,-26 -5,2 -10,3 -15,4 -29,9 -53,15 -84,2l-1 0 -1 -1 -23 -81 0 0c-1,-7 3,-15 11,-23 1,-1 3,-3 5,-4 2,-1 4,-2 7,-3l0 0 0 0 0 0c10,-4 22,-6 32,-5 -3,-19 -2,-39 -2,-57 1,-20 2,-41 2,-61l0 -2 2 0c87,-43 175,-39 262,-1l2 1 0 2c0,20 2,41 2,61 1,18 1,38 -1,57 10,-1 22,1 32,5l0 0 0 0 0 0c2,1 5,2 7,3 2,1 3,3 5,4 9,7 13,15 10,23l0 0 -23 81 0 1 -2 1c-29,8 -53,2 -82,-4 -5,-1 -10,-3 -15,-4 -19,14 -43,26 -66,27l0 0zm21 -21l-2 -3 3 -3 2 3 -3 3zm-42 0l-2 -3 3 -3 2 3 -3 3zm6 4l0 -11c0,-1 0,-2 -1,-2l0 0 4 -2 0 15 -3 0zm6 -12c0,1 0,1 0,2 0,1 1,2 1,2 1,1 1,1 2,1 1,0 2,0 3,0 0,-1 0,-2 0,-2 0,-1 0,-1 0,-2 0,0 -1,0 -1,-1 0,0 -1,0 -1,-1 -1,0 -2,0 -2,0 -1,0 -1,0 -2,1zm6 6c-1,0 -2,1 -3,2 -1,0 -1,-1 -2,-1 -1,0 -1,-1 -2,-1 0,0 0,-1 -1,-2 0,0 0,-1 0,-1 0,-1 0,-2 1,-2 0,-1 0,-2 1,-2 0,-1 1,-1 1,-1 1,-1 2,-1 2,-1 1,1 2,1 3,2 0,0 1,0 3,1 1,6 -2,11 -8,13l0 -1c3,-2 5,-4 5,-6zm5 6l0 -11c0,-1 -1,-2 -1,-2l0 0 3 -2 0 15 -2 0zm7 -13c-1,1 -1,1 -1,2 1,0 1,0 1,1 0,0 1,0 1,1 1,0 1,0 2,0 0,1 1,1 1,1 1,0 1,0 1,0 1,-1 1,-1 1,-2 -1,-1 -1,-1 -2,-2 0,0 -1,-1 -2,-1 -1,0 -1,0 -2,0zm-1 6c0,1 0,1 0,1 0,1 0,1 0,2 1,0 1,0 1,1 0,0 1,0 1,0 0,1 1,1 1,1 1,0 1,0 1,0 1,1 1,1 2,1 0,0 0,0 1,-1 0,0 0,0 0,-1 0,0 0,-1 -1,-1 0,-1 0,-1 -1,-1 0,-1 0,-1 -1,-1 -1,-1 -1,-1 -2,-1 0,0 -1,0 -2,0zm4 -8c1,1 3,1 3,2 1,1 1,2 1,3 0,1 0,2 -2,2 1,1 1,1 2,2 0,0 1,1 1,2 0,1 -1,2 -2,3 -1,1 -2,1 -4,2 -1,-1 -2,-1 -3,-2 -2,-1 -2,-2 -2,-3 0,-1 0,-2 1,-3 0,0 1,0 1,0 0,0 0,-1 1,-1 -1,0 -1,0 -2,-1 0,0 -1,-1 -1,-2 1,-1 1,-1 2,-2 0,0 1,-1 2,-1 0,0 1,-1 2,-1zm-86 -35c1,6 4,9 8,9 16,0 19,-24 9,-34 -5,-4 -8,-6 -11,-6 -3,0 -5,1 -7,3 -2,2 -3,5 -2,8l3 20zm-61 17c2,-2 3,-4 3,-6 0,0 0,-1 0,-2 -1,0 -1,-1 -2,-1 0,-1 0,-1 -1,-1 -1,0 -1,0 -2,0 -1,0 -2,1 -3,2 -1,1 -2,3 -1,5l1 9 5 -6zm-16 -5c2,0 3,-1 5,-2 1,-1 2,-1 3,-2 1,0 1,-1 2,-1 2,-1 4,-2 7,-2 3,-1 5,0 6,2 1,1 2,3 1,5 0,1 -2,3 -4,5l-3 3c3,3 6,5 9,7 2,2 4,1 6,-1l1 1c-1,1 -2,2 -3,3 -1,2 -2,3 -3,5 -2,-2 -5,-5 -7,-6 -2,-2 -4,-4 -6,-5l-2 1 1 4c0,2 2,3 4,4l1 3c-1,0 -3,0 -4,0 -2,0 -3,0 -5,1 -1,0 -2,1 -2,2l-2 -2c2,-1 3,-3 2,-4l-3 -16c-1,-2 -2,-3 -3,-3l-1 -2zm61 10c-2,3 -3,4 -4,5 -1,2 -2,3 -4,4 -2,1 -4,1 -6,1 -2,1 -5,0 -8,-1 -2,-2 -4,-4 -6,-7 -1,-4 -1,-7 -1,-10 1,-2 2,-5 3,-7 2,-2 4,-3 5,-4 2,-1 4,-2 6,-2 3,0 5,0 6,1 2,0 4,1 6,3l-5 5 -1 -2c0,-1 -1,-2 -2,-2 -1,-1 -3,-2 -5,-1 -2,0 -4,1 -5,3 -2,2 -2,4 -2,7 0,0 0,0 0,0 0,1 0,1 0,1l20 -4 -4 8 0 0c-1,-1 -1,-2 -3,-2l-13 1c0,0 1,1 1,1 0,1 0,2 1,2 0,1 1,2 2,3 0,1 1,1 2,2 1,0 2,1 3,1 1,0 2,0 3,0 2,0 3,-1 4,-2 2,-1 2,-1 3,-2 1,-1 2,-2 2,-3l2 1zm200 -2c-1,2 -2,3 -3,4 -1,1 -1,2 -2,2 -1,1 -2,1 -3,1 -2,0 -3,0 -5,-1 0,0 -1,0 -2,0 -1,0 -1,0 -2,0 0,0 0,0 0,-1 0,0 -1,0 -1,0l-1 0c0,0 -1,0 -2,0 -1,0 -2,0 -3,0l-1 -1c1,-1 2,-2 2,-3 1,-1 1,-2 1,-3l2 -15c1,-2 0,-3 -1,-4l0 -1c3,-1 5,-2 7,-2l4 -2 -2 3c0,0 -1,1 -1,2 0,1 0,2 0,3l-2 15c-1,1 -2,2 -3,4l0 0c2,-1 3,-1 5,-1 1,0 3,1 4,2 2,1 5,0 8,-3l1 1zm10 -16c1,-2 -1,-4 -4,-5 -2,0 -3,-1 -2,-2 0,-1 1,-1 2,-1 2,0 3,1 3,3l12 2 0 2c-3,-1 -5,0 -5,2l-4 20c-1,2 1,4 4,5 2,0 3,1 2,2 0,1 -1,2 -2,1 -2,0 -3,-1 -3,-2l-12 -3 0 -2c3,1 4,0 5,-2l4 -20zm38 27c-2,2 -4,3 -5,3 -2,1 -3,2 -5,2 -2,0 -4,0 -7,-1 -2,0 -4,-2 -6,-4 -2,-2 -3,-5 -3,-9 0,-3 1,-6 2,-9 2,-2 4,-4 6,-5 2,-2 4,-2 6,-3 2,0 4,0 6,1 2,1 4,2 6,3 1,1 2,3 3,5l-6 2 -1 -1c1,-1 1,-2 0,-3 -1,-2 -2,-2 -4,-3 -2,0 -4,0 -6,1 -2,1 -4,3 -5,5 -1,3 -1,5 -1,8 0,1 1,2 1,3 0,2 1,2 2,3 0,1 1,2 2,2 1,1 2,1 3,1 1,1 2,1 3,1 2,-1 3,-1 3,-1 1,-1 2,-1 3,-1 1,-1 1,-1 2,-2l1 2zm-112 -37l13 -6c6,-3 9,-6 10,-9 1,-2 1,-3 1,-5 0,-1 -1,-2 -1,-3 -1,-1 -2,-2 -3,-2 -1,-1 -2,-1 -3,-2 -2,0 -5,0 -8,1 -2,2 -5,5 -6,9l-3 17zm11 29c2,-1 3,-2 5,-3 1,-1 2,-2 3,-3 3,-3 4,-7 3,-12 -1,-4 -5,-8 -12,-10l-11 5 -1 7c-1,6 3,12 13,16zm-24 -56c3,0 7,0 11,-1 2,-1 4,-1 6,-1 2,-1 4,-1 6,-2 3,0 8,0 13,2 6,1 10,4 11,8 1,4 1,7 -1,10 -3,3 -6,5 -12,7 6,1 10,4 13,8 2,4 2,9 -1,15 -2,6 -10,11 -24,14 -2,-1 -4,-2 -7,-3 -2,-1 -4,-2 -6,-3 -4,-2 -8,-2 -11,-2 -2,1 -4,1 -6,2l-1 -4c4,-1 6,-4 7,-7l5 -33c1,-4 0,-6 -4,-7l1 -3zm-28 0c0,-4 -2,-6 -6,-7l0 -3 23 0 0 3c-4,0 -5,2 -5,6l0 38c0,4 1,6 5,7l0 2 -9 7c-5,-2 -7,-5 -8,-9 -1,2 -3,4 -5,5 -2,2 -5,2 -8,3 -4,0 -8,0 -11,-2 -4,-2 -7,-5 -10,-10 -3,-4 -5,-10 -4,-17 0,-8 2,-14 4,-18 1,-2 2,-4 3,-6 2,-2 2,-4 3,-5l-10 0 0 -4 27 0 0 3c-6,2 -10,5 -12,11 -2,6 -3,11 -3,17 0,5 1,10 4,14 3,3 6,5 10,6 4,0 7,0 9,-2 2,-2 3,-5 3,-8l0 -31zm-68 49c-1,0 -2,0 -3,0 -1,0 -2,0 -4,0 0,0 -1,0 -1,0l1 6c0,1 0,1 1,2 0,1 1,1 1,1 1,1 1,1 2,1 0,0 1,0 1,0l1 2 -17 3 -7 -43c-1,-4 -3,-7 -8,-10l1 -3c7,-1 15,-5 24,-12 8,1 16,4 23,10 20,16 3,33 -15,43zm183 -94c-4,-2 -17,-6 -19,2 0,-4 3,-8 6,-10 -4,-1 -11,-2 -15,-1 0,-4 0,-10 -2,-11 1,4 1,8 1,12 -3,0 -4,2 -5,5l-1 0c1,-5 2,-9 1,-16 -1,-1 0,-1 -1,-2 3,0 6,0 9,0 1,0 7,-1 8,0 4,0 10,1 14,0 0,0 1,0 2,-1l1 -1c-2,1 -7,0 -10,1 -5,-3 -3,-10 -3,-15 -2,3 -1,10 -2,13 -5,1 -10,1 -15,1 -2,0 -3,0 -4,0 -1,-2 -2,-5 -5,-10 -1,-2 -3,-4 -4,-5l0 -1 4 0c11,0 22,0 33,0l-1 -2 -5 0c-4,0 -15,1 -20,0 -3,0 -7,0 -10,0 0,0 -2,0 -2,0 -1,0 -1,0 -2,0l0 0 0 0c-3,-3 -7,-5 -11,-6 -2,-1 -4,-1 -6,-2 0,-1 0,-2 0,-4 0,-1 0,-3 0,-4l3 -1c3,0 6,0 7,-1 0,0 16,0 19,0l1 5c0,0 -1,3 -1,3 0,1 1,1 1,3 0,2 0,2 1,4 1,-1 0,-10 1,-8l0 -6c1,0 2,-1 4,-1 2,0 9,1 10,-1 -3,0 -17,-1 -17,-1 -3,0 -6,1 -9,0 -2,-1 -2,-2 -3,-4 -1,-3 0,-7 0,-10 -2,4 -1,9 -2,12 -3,3 -15,2 -20,1 0,0 0,-12 -2,-15l0 0c10,0 23,0 28,0 1,-1 4,0 2,-2 -7,0 -12,0 -15,0 -3,-1 -11,1 -10,-1 -3,0 -4,1 -6,1l0 0c0,-2 -2,-4 -4,-8 -1,-2 -2,-3 -4,-5 -2,-3 -5,-5 -8,-6l0 0c5,-1 11,-1 14,-1l0 0c-4,0 -10,0 -16,0l0 0c-1,-1 -2,-1 -4,-2 -3,-1 -6,-1 -9,-2l0 0c0,-3 0,-7 1,-11 1,-1 10,-3 13,-2 -1,-1 -3,-1 -4,-1 0,1 -12,1 -13,0 3,8 1,7 2,14l0 0c-8,-2 -16,-2 -25,-2 -3,0 -5,1 -8,1l0 0c0,0 0,-1 0,-3 -1,-2 -2,-6 0,-9l4 -4c-5,1 -8,3 -8,15l1 0 1 -5c0,1 0,4 0,7 -6,1 -11,2 -17,5 -1,0 -3,0 -4,0 0,0 -2,0 -2,0 -7,0 -6,-1 -10,-1 1,2 -8,0 -10,1 -3,1 -13,0 -20,0 -2,2 1,1 2,2 7,0 29,0 39,0 -5,4 -10,9 -12,16l-1 0c-4,0 -6,2 -7,-4 -2,-7 0,-6 -2,-10 0,3 1,7 0,11 -1,1 -2,2 -3,4 -3,-1 -8,0 -10,-1l0 1c2,0 3,1 7,0 3,1 7,1 10,0 0,0 2,0 5,1 -1,1 -1,3 -2,6 -1,4 -1,8 0,12 -9,0 -19,0 -39,1 1,1 8,0 11,1l2 0c1,0 0,0 1,1l1 6c0,-2 -1,7 1,8 0,-2 0,-2 0,-4 0,-2 1,-2 1,-3 0,0 -1,-3 -1,-4l1 -3c1,0 1,-1 4,-1 7,-1 13,0 19,0 1,5 4,10 8,13 0,0 1,0 1,0l0 0 0 0c-6,1 -11,3 -16,4 -7,0 -18,1 -18,1 -3,-2 -7,0 -11,0l4 1c5,0 7,0 14,0l5 1 0 0c-1,0 -2,1 -4,1 -4,4 -9,9 -12,15l0 0 -7 0 0 0c-2,0 -5,-1 -6,-4 0,-3 -1,-6 -1,-9l-1 -2 0 4 0 7c-1,1 0,3 -3,4 -3,0 -7,1 -9,0l0 1c3,0 6,1 9,1 1,0 6,-1 8,-1 0,0 6,0 8,0 0,0 1,0 2,0 -1,3 -2,5 -3,8 0,2 0,3 0,5 -2,2 -3,4 -4,6 -8,0 -18,0 -19,1l-1 1c7,0 14,-1 20,-1 -1,1 0,3 1,5 -3,-3 -6,-2 -8,-5 0,2 0,4 1,6 -4,-1 -8,-1 -11,-2 3,3 2,6 5,10 -7,-5 -14,2 -18,4 5,8 14,12 18,7 -2,4 -7,6 -10,7 7,5 20,13 22,0 1,-2 -1,-5 -1,-6l2 -1 0 0 0 -4 0 0c-1,1 -1,1 -2,2 -2,1 -3,12 -14,10 11,1 10,-8 13,-10 -3,-2 -16,-1 -21,-4 6,2 17,1 20,2 -3,-5 -5,-7 -8,-10 4,2 7,7 9,11 2,-1 3,-3 3,-6 2,0 5,0 5,-2 -2,-2 -7,-5 -7,-8 2,3 3,4 7,7 0,-1 0,-4 0,-8 0,1 0,1 1,2 0,3 0,6 0,7 1,-1 2,-1 3,-2 0,1 1,1 1,1 -2,1 -4,2 -3,3 1,-2 3,0 7,0l0 0c1,1 4,3 5,4 7,3 11,5 17,7 -21,6 -39,14 -53,20 -2,1 -4,2 -7,3 -5,-11 -8,-24 -10,-37 -2,-20 -2,-42 -1,-61 0,-6 0,-13 0,-20 1,-12 1,-24 2,-37 41,-19 82,-28 123,-28 41,1 83,11 124,28 0,13 1,25 1,37 1,7 1,13 1,20l0 0 0 0c1,17 1,35 -1,53 -1,16 -5,31 -11,45 -2,-1 -4,-2 -6,-3 -3,-1 -6,-2 -9,-4l0 0 1 0 0 -1 -1 -1 -1 2 -1 0 1 -1c1,-1 0,-3 -1,-4 0,0 -1,0 -1,0l-1 1 -2 2 1 0 -1 0 2 -2 1 -1 -3 -3 -3 2 2 4c-12,-5 -26,-10 -41,-14 3,0 5,-1 7,-1 7,0 12,-3 16,-8l1 0 -2 3 0 1 5 -3 -2 -2c0,-2 2,-3 5,-3l-2 -1c0,-1 1,-2 1,-3 2,-3 3,-3 4,-8 0,-1 0,-2 0,-2 1,0 2,0 2,0 0,0 1,1 1,2 1,4 5,5 4,8 5,-3 -3,-13 9,-15 -9,3 -4,8 -7,14 3,1 15,-6 21,-5 -6,1 -16,6 -20,7 6,3 8,4 12,5 -4,0 -9,-3 -13,-5 -2,2 0,8 4,10 0,2 2,1 4,2 0,0 -1,1 -1,2 1,0 2,0 3,1l0 0 2 2c0,-2 -1,-4 -4,-5l1 0c4,0 9,-2 13,-3 -4,-1 -4,-5 -9,-7 9,2 11,-8 14,-12zm-39 11l2 0 1 0c1,1 1,2 2,2 1,0 1,-1 1,-2 2,1 3,3 4,2l-3 -3 -1 1c-2,-1 -5,-1 -6,0zm3 4l2 1 0 -3c-1,0 -1,-1 -3,-1l-2 0c0,2 1,3 3,3zm5 3l1 1 2 0 0 0c-1,-3 -1,-6 -4,-6 -1,0 -1,0 -1,1 -1,2 0,1 0,3l2 1zm3 1l0 1 2 0c0,-3 -1,-4 -3,-5l0 0 1 4zm-17 -5l-2 1 1 0c-2,3 -5,5 -6,5l-2 1c0,0 0,0 0,-1 0,0 9,-7 9,-10 1,1 2,1 2,2 0,0 -1,1 -2,2zm13 6l1 0 -1 -1c0,-1 -2,-2 -2,-2l-2 -1c-1,2 -1,3 1,4l0 0c1,0 1,0 3,0zm-11 -4c0,2 4,4 7,5 -1,-2 -2,-2 -1,-4l0 -1c-2,-1 -1,-2 -2,-2 -1,-1 -4,0 -4,1l0 1zm10 8l2 -1c0,-1 0,-3 -1,-3l-3 1c0,2 -1,2 2,3zm-5 0l1 0c1,-1 1,0 1,-2 0,0 0,-1 0,-1 -5,-1 -4,-3 -6,1l1 2 3 0zm-4 -5c-1,0 -4,2 -4,3l-1 2 4 0c0,-1 0,-2 0,-2l1 -3zm11 3c0,1 0,1 0,3l0 0 -1 1 0 0 1 -2c-2,1 -1,2 -2,3 -1,0 -2,0 -2,2l-1 1c1,0 3,-1 4,-3 -1,2 -1,3 -2,5l1 0 2 -3c1,-1 1,-1 2,-2l2 -2 -1 0 0 0c0,-1 0,-1 0,-1l0 0 1 1 1 0 3 1c1,-1 1,-1 2,-2 0,0 0,-1 1,-1 -3,-3 -5,0 -8,0l0 0 0 0 4 -2 0 0c-1,0 -3,-1 -4,0l-2 -1 0 0 -1 2zm-6 5c1,0 1,1 1,1 0,0 5,-3 3,-4l-3 0 -1 3zm-10 -2l0 0 0 1 1 -2 -1 0 0 1zm6 1l-1 4 5 -2 0 -2 -4 -1 0 1zm-5 3l4 0 0 -3 1 -1c-1,0 -1,-1 -1,-1 -2,0 -3,0 -4,1l0 4 0 0zm26 -2l-2 -1 2 -2c1,1 2,1 3,2l1 1c-1,1 -3,1 -4,0zm4 7c2,-2 1,-4 0,-6l1 1c1,1 1,2 1,3l1 3 -3 -1 -1 4 -1 1 -1 -5 3 0zm-10 -7l0 -1 1 0c0,0 3,0 3,1l1 1c-1,1 -2,2 -3,1l0 0c-1,-1 -1,-1 -2,-2zm10 6c-2,1 -6,-1 -8,-2 2,-1 2,0 4,-2l0 -1c2,1 2,0 3,1 1,0 2,2 1,3l0 1zm-12 -3l-1 -1c1,-1 2,-3 3,-2l1 3c-2,1 -1,2 -3,0zm2 5l-1 -2c1,-1 1,-1 1,-2 1,0 1,0 2,0 3,3 4,1 3,5l-3 1 -2 -2zm6 -1c1,1 2,4 1,5l-1 1 -2 -3c0,0 1,0 1,0l1 -3zm-9 1c0,0 0,0 -1,0 0,0 -1,-5 1,-5l2 2 -2 3zm-2 0l-1 1c0,-1 0,-5 1,-6l1 -1c0,2 -1,1 -1,3 0,1 1,2 0,3zm-170 -20l-3 1 0 0c-1,1 -1,1 -2,2 -1,0 -1,-1 -1,-2 -2,1 -2,4 -3,2l2 -3 2 1c1,-1 3,-1 5,-1zm-3 5l-1 0 0 -2c0,-1 1,-1 2,-1l1 -1c1,2 0,3 -2,4zm-3 3l-1 1 -2 0 0 0c1,-3 0,-5 3,-6 0,0 1,0 1,1 0,1 0,1 0,2l-1 2zm11 -4c-1,-2 -3,-3 -5,-2l1 -1c2,0 2,0 3,1l2 0 -1 2 2 3 1 1 -5 -2 2 -2zm-10 5l-1 0 0 -1c1,0 2,-2 2,-2l2 -1c0,1 1,3 0,3l-1 0c-1,1 -1,1 -2,1zm8 -5c1,2 -2,4 -4,5 -1,-2 0,-2 0,-3l-1 -1c2,-1 1,-2 2,-3 1,0 3,0 3,1l0 1zm-7 8l-1 0c-1,-1 -1,-2 0,-3l3 0c0,2 0,2 -2,3zm5 0l-1 0c-1,-1 -1,0 -2,-2 0,0 0,0 0,-1 4,-1 4,-3 6,0l-1 2 -2 1zm2 -5c1,0 4,1 4,2l1 1 -4 1c0,-1 0,-2 0,-2l-1 -2zm-9 4c0,1 0,1 1,2l1 4 -1 0c-1,-2 -2,-2 -3,-4l0 -1c-1,-1 -1,-1 -1,-2l2 -1 0 0 1 2zm6 3c0,1 0,1 -1,1 0,0 -4,-1 -3,-3l3 0 1 2zm8 -3l1 0 0 1 -2 -1 1 -1 0 1zm-4 2l1 3 -5 0 0 -3 3 -1 1 1zm-5 3l0 1c0,0 -3,-2 -4,-3l0 -1c1,1 1,1 2,2 0,0 2,0 2,1zm9 -1l-3 0 -1 -2 0 -1c0,0 0,-1 0,-1 1,0 3,-1 3,1l2 3 -1 0zm37 -128c-1,0 -1,0 -1,0l1 0zm67 -1c-1,0 -1,0 -1,0l1 0zm22 50l0 0c1,-2 0,-6 0,-8 0,0 -1,-1 -1,-2l-2 0c0,2 -2,6 -2,7 0,0 0,1 -1,2l0 0c2,0 4,0 6,1zm-105 -62l2 3c-1,1 -2,1 -2,3 0,2 0,2 0,4 -1,-1 -1,-9 -1,-10l1 0zm103 12l4 1 -3 9c0,1 2,1 1,3 0,2 1,2 1,4 1,-1 2,-15 2,-17 1,1 3,2 5,2 2,0 2,-1 4,-1 -1,-1 -12,-1 -14,-1l0 0zm0 121l0 2c3,1 12,0 13,-2l0 -1c-5,1 -8,2 -13,1zm11 -4c-3,2 -7,2 -11,2l0 0 1 2c4,-1 7,-1 11,-3l0 0 -1 -1zm-19 5c-1,-1 -4,-2 -4,-3 -1,0 -3,-2 -4,0 0,0 3,1 3,2 1,0 3,0 4,1l0 0 1 0zm6 -1c-5,0 -9,-5 -10,-5 0,1 0,1 0,2l0 0c1,1 1,1 2,2 1,0 2,1 3,1 1,0 5,2 5,1 0,0 0,-1 0,-1zm-5 -3l1 0 0 1c1,0 2,1 4,1l0 -1 0 0 -5 -1zm-14 2c-1,-1 -3,-2 -3,-3 -1,-1 -4,-1 -5,-1 0,1 2,2 3,3 1,1 2,1 3,1 1,0 1,0 2,0zm13 -7l0 0 0 1 0 2 1 0c0,-1 0,-3 -1,-3zm-27 -4l0 0 4 5 4 1c0,-1 -3,-4 -3,-5 -2,-2 -3,-4 -3,-6l0 0c-1,1 -1,1 -1,2 0,2 -1,3 -1,3zm2 -8l0 0c1,2 2,3 3,5 1,3 2,4 4,7 1,1 1,2 2,3 1,0 3,2 4,2 -5,-6 -8,-12 -11,-18 0,-1 0,-2 -1,-4l0 0c0,2 0,3 -1,5zm1 -13c1,0 2,0 3,-1l-3 2 1 6 1 1c0,1 0,1 0,2l-1 0c1,3 2,3 5,3 -1,-7 0,-14 0,-19l-2 -1 -3 0c0,2 -1,3 -1,4l5 1c0,2 -3,0 -3,0l-2 0c0,1 0,1 0,2l0 0 0 0zm0 -5l0 0c0,-2 0,-4 0,-7 1,-1 1,-3 2,-5 -1,0 -1,0 -2,0 -1,2 -2,4 -2,7l0 0c1,2 1,4 2,5zm3 -12c0,1 -1,2 -1,4l3 0 0 0c-1,0 -2,0 -4,1l0 3 1 0 4 1 2 -7 -2 0 -1 0 1 0c1,-1 2,-1 3,-1l0 -1 -4 0 1 -1c-1,1 -2,1 -3,1zm10 -3l0 0c-2,3 -4,5 -5,12 3,1 1,0 2,-2 1,-1 1,-2 2,-3 1,-4 3,-5 4,-8l-1 -1 0 0c0,1 -1,1 -2,2zm7 -6l0 0c2,-2 4,-3 8,-5l0 -1 0 -1c-1,1 -3,1 -4,2l0 0c0,0 -1,1 -1,2 -1,1 -2,2 -3,3zm-34 61c-11,0 -22,1 -33,2l0 0 0 0c-5,1 -10,2 -14,3l-1 0 0 0c-25,5 -46,15 -62,22 -2,1 -3,2 -5,2l-2 1 -1 1 0 0c-6,2 -12,4 -19,5 -1,0 -3,1 -4,1l0 0c-2,0 -3,0 -4,0l0 0c-1,0 -2,0 -2,0l0 0c-4,1 -7,1 -10,0l-3 0c-2,0 -3,0 -4,0 -1,0 -1,0 -2,-1l-1 0c-2,0 -4,-1 -7,-1 -3,-2 -7,-3 -10,-5l0 0 0 0 0 0 0 0 0 0 0 0 0 0 0 0 0 0 0 0 0 0 0 0 0 0 0 -1 0 0 0 0 0 0 0 0 -1 0 0 0 0 0 0 0 0 0 0 0 0 0 20 68c21,9 39,8 59,3 5,-1 9,-2 14,-4 6,-1 12,-3 18,-5 4,-1 8,-2 12,-3 6,-1 12,-2 19,-3 23,-4 47,-4 70,-2 9,1 18,3 27,5 1,0 2,0 3,0 2,1 4,1 5,1 2,1 3,1 4,1 8,2 15,4 22,5 8,2 15,4 23,5 6,0 13,1 20,1 1,0 3,0 4,0l0 0c7,-1 14,-2 21,-4l19 -68c0,1 -1,1 -2,1 -6,4 -13,6 -22,7l-3 0c-4,1 -9,1 -13,0 -1,0 -3,0 -4,0 -4,-1 -8,-2 -11,-3 -3,0 -5,-1 -7,-2l0 0c-1,0 -2,-1 -3,-1l-1 0 0 0 0 0 0 0 0 0c-1,-1 -1,-1 -2,-1l0 0 0 0c-2,-1 -3,-1 -4,-2 -1,0 -2,-1 -3,-1 -23,-10 -58,-26 -99,-27l0 0 0 0 0 0 0 0 -1 0zm4 -5c1,0 2,-1 2,-1 -1,-1 -2,-1 -2,-2 0,1 -1,2 -2,3 1,0 2,0 2,0zm-4 0c1,-1 3,-3 3,-4l-1 0c-1,1 -3,3 -4,4 1,0 1,0 2,0zm-8 0c0,-1 0,-2 0,-3 0,-2 0,-4 0,-7 0,-4 0,-10 0,-14l0 -3c0,-3 0,-23 -1,-24l0 3c-1,0 -1,-4 -2,-6l0 0 0 2 -1 5c0,0 0,0 0,-1l0 -3 0 -3c-1,1 -1,3 -1,4 0,0 -1,-2 -1,-3 0,-2 0,0 0,-2 -2,0 1,0 -2,0 -2,6 1,12 1,17 0,4 -1,8 -4,10 0,-2 2,-4 2,-5 -2,-3 1,-10 0,-13l0 0 1 3 0 1c0,3 -1,4 -1,6 0,1 0,2 1,2l0 -5 0 -5c0,-1 -2,-4 -2,-6 0,-2 0,-3 1,-5 -3,0 -8,0 -9,2 0,2 -1,3 -1,5 0,2 0,2 0,4 0,3 1,6 1,10l-1 2 -1 1c1,-3 1,-13 0,-14 0,3 0,7 0,10 0,1 0,4 0,4 0,2 0,4 0,5 0,3 0,8 0,10 0,3 0,7 0,10l0 5 1 2c0,0 1,0 2,0l0 0 0 -3 0 0 1 2c0,0 0,1 0,1 1,0 2,0 4,0l0 -3 -1 0 0 1 -1 0 0 -1 0 -1c0,-1 -1,-2 -2,-2l0 -1c1,0 1,0 2,0 -1,-2 0,-6 2,-7 1,-1 4,-2 6,-2 1,0 2,0 3,2 0,0 1,1 1,3 0,2 0,3 -1,5 -1,2 -1,2 -3,3l-2 0c0,0 -3,-1 -4,-1l1 2c0,0 0,1 0,2 8,-1 7,-1 11,-1zm67 -2c0,1 1,1 1,1 3,0 9,-6 9,-9l-1 0c-1,3 -6,7 -9,8zm-29 -4c-2,0 -5,-8 -5,-10l-2 0c1,4 6,12 8,14l2 0 0 0c0,-1 -2,-2 -3,-4zm-13 -10c2,3 3,6 5,9 1,1 2,2 3,3 1,2 2,2 4,2 -3,-2 -6,-8 -8,-13l-4 -1zm62 -5c-1,-2 0,-1 -2,-2 0,0 -2,7 -2,7 -1,1 -3,5 -3,6l1 2c1,-1 5,-10 6,-13zm-7 4c-1,2 -3,6 -3,6l1 0c1,0 4,-6 4,-7l1 -5 0 0c-1,1 -2,5 -3,6zm4 -19c0,6 -1,9 -1,12l1 -1c0,-2 1,-6 1,-8l-1 -3zm-52 0l-3 0c0,2 -1,13 2,19l1 0c-1,-7 -1,-13 0,-19zm56 12c0,-2 0,-5 0,-8 0,-2 0,-5 -1,-8 -1,1 -1,1 -2,1 0,1 1,4 1,6l-1 8c0,0 2,1 3,1zm-1 -17c0,-2 -2,-6 -3,-7 0,-2 -1,-2 -1,-4 -1,0 -2,-2 -2,-2 -1,0 -2,1 -2,2 3,3 5,7 5,10l1 1 2 0zm-42 -1c0,-2 0,-5 0,-7 0,-2 0,-5 -1,-6l0 2 0 0c0,5 -2,6 -2,8l0 0c0,1 1,4 1,6l0 0c-1,-1 -3,-6 -3,-7l0 0c0,-2 3,-4 2,-6l0 -1 0 -1c-1,1 -2,5 -2,7 0,0 0,0 0,1l0 0 0 4 0 0 -1 -2c0,0 0,0 0,1l0 1c1,4 0,5 1,7l-1 9c0,-2 0,-3 0,-4 0,-1 0,-3 0,-4 0,-5 -2,-9 0,-13 0,-1 0,-3 1,-4 -3,1 -4,6 -5,8 -1,1 -2,4 -2,5 -1,5 0,9 0,13 0,4 1,9 2,12 1,1 4,6 5,6l0 0c1,-1 0,-3 0,-4l1 0 0 5c0,-1 1,-4 1,-4l0 0 -2 -10 1 0 0 2 0 0 0 -3 0 0c1,1 1,1 1,1l0 3 0 2c0,1 1,4 1,5 0,1 0,2 -1,2 1,1 0,0 0,1 0,1 1,2 1,3l1 0 0 0 1 -13c0,-9 -1,-17 0,-25zm24 -12l0 -2c0,-1 0,-2 -1,-2l0 0 0 19 0 4 0 3 0 1 0 1 0 2c0,0 0,3 0,4 0,6 0,15 1,18 1,-2 2,-7 2,-11l0 -1c0,-3 -1,-5 -1,-9 0,-2 1,-8 2,-9 -1,2 -2,7 -2,9 0,2 1,4 1,7 0,1 1,4 1,6 -1,5 -1,4 -1,5 0,2 -1,3 -1,4l2 -1c2,-3 4,-5 5,-8 1,-1 1,-2 2,-4 1,-3 2,-7 3,-12l-1 -9 -1 -4c-2,-3 -4,-8 -7,-11l0 4 -1 -5 -1 -1c1,3 1,6 1,8 0,3 1,5 1,8 0,0 0,0 -1,0 1,-3 -1,-6 -1,-10l-1 0 0 -5 0 -3 -1 0 0 4 0 0zm-11 -7c-4,0 -8,0 -9,2 0,2 -1,3 -2,5 0,2 1,3 1,4 0,3 1,6 0,10l-1 3 0 0c0,-3 1,-13 0,-14 0,3 -1,7 0,10 0,1 0,4 -1,5 0,1 1,3 1,4 0,3 0,8 0,10 0,3 0,7 0,10l-1 0 0 0 1 5 0 1 0 0 1 2c0,1 0,1 0,2l0 0c1,0 1,-2 1,-3l0 -3 1 0 0 2c0,2 0,3 -1,5 3,0 5,1 8,1l0 0c0,0 0,0 0,-1l0 -1c0,-1 0,-4 1,-4l0 4 0 1c0,1 0,1 0,1 1,0 3,0 3,-1 0,-1 0,-2 0,-3 1,0 1,0 1,1l0 0c0,1 0,1 0,2 1,-1 1,-3 1,-5 1,0 0,-1 1,-2l0 4 2 2c0,-2 1,-4 1,-7 -1,-2 0,-4 0,-7 0,-4 0,-10 0,-14l-1 -3c0,-3 0,-23 -1,-24l0 3c-1,0 -1,-4 -1,-6l-1 0 0 2 0 5c0,0 0,0 0,-1l-1 -3 1 -3c-2,1 -1,3 -1,4 -1,0 -1,-2 -1,-3 0,-2 -1,0 -1,-2 -1,0 2,0 -2,0 -2,6 2,12 2,17 0,4 -1,8 -4,10 0,-2 2,-4 2,-5 -3,-3 0,-10 -1,-13l1 0 0 3 0 1c0,3 -1,4 0,6 0,1 -1,2 0,3l1 -6 0 -5c0,-1 -2,-4 -2,-6 0,-2 0,-3 1,-5zm22 6c-2,-3 -10,-9 -13,-9 0,1 0,1 0,2l0 0c4,1 9,5 12,8l1 -1zm-28 -8c0,1 0,1 0,1 1,0 3,0 3,-1 2,0 3,0 4,0 2,0 5,0 7,1l0 -2c0,0 0,0 0,0 -2,0 -9,-1 -14,1zm-3 50c0,-2 -2,-4 -2,-8 0,-3 0,-6 0,-9l0 -1 1 0c0,2 0,7 0,9 0,3 1,6 2,8 0,1 -1,1 -1,1zm10 3c0,1 1,1 2,0 3,-2 -3,-7 -4,-6 0,2 0,5 2,6zm-3 -8l-1 0c-1,0 -1,1 -1,2 0,2 0,4 1,5 1,1 2,1 3,1 -2,-1 -3,-6 -2,-8zm-2 10l-1 1 0 -2c0,-1 -2,-2 -2,-2l0 -1c1,0 1,0 2,0 -1,-2 -1,-6 1,-7 2,-1 5,-2 7,-2 1,0 1,0 2,2 1,0 2,2 2,3 0,2 0,3 -1,5 -1,2 -2,2 -3,3l-3 0c0,0 -2,-1 -3,-1 0,1 1,4 0,4l-1 -3zm-6 -50c-1,1 -1,5 -1,5 -1,-1 0,-3 0,-4l1 -1zm-29 8l-1 1c3,2 12,0 14,-2l-1 -1c-4,1 -8,2 -12,2zm10 -4c-3,1 -7,2 -10,2l0 0 0 1c4,0 8,-1 11,-2l0 -1 -1 0zm-26 -4l0 0c-2,-3 -6,-8 -6,-12l-2 1c1,2 3,6 5,9l0 0c1,1 2,1 3,2zm-6 -2l0 0c-1,-3 -3,-6 -4,-9l-4 0c2,3 3,5 5,8l0 0c1,0 2,0 3,1zm-5 -2l0 0c-2,-3 -3,-6 -4,-10 -1,-2 -2,-6 -2,-9 -1,-5 0,-9 1,-14 0,-3 3,-10 5,-14 1,0 2,-1 2,-2 1,-1 2,-2 2,-3 -2,1 -4,5 -5,6 -3,3 -3,4 -4,7 -3,5 -4,12 -4,18 0,6 2,13 5,17 1,2 1,3 2,4l0 0c1,0 1,0 2,0zm-5 -1c-1,-2 -2,-3 -2,-5l-1 -1 -4 0 -1 -1 3 6 0 0 0 0c2,1 3,1 5,1zm-6 -1l0 0c-3,-5 -5,-10 -5,-16 -1,-4 -1,-11 0,-14 1,-2 3,-9 4,-11 1,-2 2,-4 4,-5 0,-1 3,-4 3,-5 -1,1 -3,3 -4,3 -1,2 -4,6 -5,8 -3,5 -5,14 -5,19l0 2c0,4 1,6 1,9 1,3 2,4 3,7 0,1 1,2 1,3 1,0 2,0 3,0zm-5 0c-1,-2 0,-2 -2,-3l-3 -1 2 0 -6 -1 0 0c0,-1 -1,-1 -2,-2 -3,-2 -2,-2 -6,-2 1,2 1,5 3,6 2,1 7,1 7,2 2,0 2,0 7,1zm35 10l1 1c1,0 3,2 5,1l-1 0 -5 -2zm31 -8c1,2 -9,9 -9,10 0,0 0,0 0,1l2 -1c2,-1 9,-8 10,-9 -1,0 -2,-1 -3,-1zm-11 7c0,0 1,1 2,1 2,0 8,-7 9,-9l-2 -1c-1,3 -6,7 -9,9zm20 -20c-1,-1 0,-1 -2,-2 0,1 -2,7 -2,7 -1,1 -3,5 -3,6l1 2c2,-1 6,-10 6,-13zm-7 5c0,1 -3,5 -3,6l1 0c1,0 4,-7 5,-8l0 -4 0 -1c0,2 -2,5 -3,7zm-70 0c-1,-1 -1,0 -3,0 0,-1 -1,-1 -2,-1 -1,0 -4,-1 -5,-2 1,2 6,3 8,3l2 0zm-25 -7c1,3 2,6 6,6l-3 -3 -3 -3zm99 -12c0,5 0,8 -1,11l1 -1c0,-1 1,-5 1,-7l-1 -3zm-66 14c0,-1 0,0 0,-1l0 0 0 0 -1 -7 -2 -1 1 0 1 1c1,-1 1,0 1,-1l0 -1 -4 1 -1 1 0 2 1 0c0,1 0,1 -1,1l-1 0 3 9 0 0 5 0 -1 -2 -1 0c-1,0 -2,0 -2,-1 1,0 0,0 1,0 1,0 1,0 2,0l0 -1 -1 0zm14 -15l-2 0c0,3 -1,14 1,19l2 0c-2,-6 -2,-12 -1,-19zm-10 7c2,-1 2,-1 3,-1l-2 2 0 6 2 0c-1,1 -1,1 0,2l-1 0c0,3 2,3 5,3 -2,-7 -1,-13 -1,-19l-1 0 -4 -1c0,2 -1,3 0,5l5 1c0,1 -3,0 -4,0l-1 0c-1,0 -1,1 -1,2zm66 6c0,-3 1,-6 1,-8 -1,-3 -1,-5 -1,-8 -1,0 -2,0 -3,0 0,2 1,5 1,6l-1 9c0,0 2,1 3,1zm-71 -9c0,-3 1,-4 1,-5 -1,0 -2,-1 -5,0 0,3 -1,5 0,6 1,0 3,0 4,-1zm-20 -7l0 1 -1 -1c2,4 9,2 10,5 -2,-1 -3,-2 -6,-2 -3,0 -5,-1 -6,-2l-1 3 6 0 0 0 -6 0 0 1 3 0 0 0 -3 0 0 5 4 1 0 0 -4 -1c1,1 3,1 5,1l-1 1c-1,0 -2,0 -3,0l-1 0c1,2 1,3 1,5l2 0c3,-1 6,1 9,1l0 0 -1 1c-1,0 -8,-3 -9,-2 1,0 6,2 7,2 2,1 6,1 7,2l-2 -8 0 0 -3 -1 -2 -1 5 0 0 -1c-1,0 -4,1 -4,0 0,0 0,0 1,0l2 0 0 -1 1 0 0 -4 0 -1 -4 -1 1 -1 3 1 1 -2 -6 0 -1 -1 -4 0zm-11 2c2,0 1,1 2,-1 0,0 -1,0 -1,0l-2 0c-1,0 -1,3 -1,5l0 4 0 4c2,0 2,1 4,1l1 0c-1,-4 -1,-7 -1,-11 -1,-1 -1,-1 -2,-1l0 -1zm32 -2l1 -3 -4 0c0,0 0,0 -1,0l-1 2 1 0 3 1 1 0zm69 -2c0,-1 -2,-6 -2,-7 -1,-1 -1,-2 -2,-3 0,-1 -2,-2 -2,-3 0,0 -1,1 -1,2 2,4 4,8 5,11l0 1 2 -1zm-57 4c3,0 2,0 3,-2 0,-1 1,-3 1,-4 1,-3 3,-5 4,-8l-1 -1c-3,4 -5,6 -7,15zm-6 -6l3 0 0 1c-1,0 -2,0 -3,0l-1 3 2 1 4 0 2 -6 -3 0 -1 -1 1 0c2,0 2,-1 4,-1l0 -1 -5 0 1 0c3,0 4,-1 5,-1 0,0 0,0 1,-4l0 1 -1 -1 -3 -1 0 0 5 0 0 0c0,-1 -3,-1 -4,-1 -3,3 -6,6 -7,11zm-35 3c1,-5 3,-7 4,-10l-2 0c1,-1 3,0 3,-2l-3 0c-2,2 -3,4 -4,6 0,1 -2,6 -2,7l4 -1zm56 -1c0,-3 0,-6 0,-8 0,-2 0,-5 -1,-5l0 2 0 -1c0,5 -2,6 -2,8l0 0c0,2 1,4 2,7l-1 0c0,-1 -2,-7 -2,-8l0 0c0,-2 2,-3 2,-6l-1 0 0 -2c-1,1 -2,5 -2,7 0,0 0,1 0,1l0 1 1 4 -1 0 -1 -3c0,0 0,0 0,1l0 2c1,3 1,4 2,7l-2 8c0,-2 0,-3 0,-4 0,-1 1,-2 1,-3 -1,-5 -3,-10 -1,-14 1,-1 1,-3 1,-3 -3,1 -4,5 -5,8 -1,1 -1,4 -2,5 -1,4 0,8 0,13 1,4 2,9 3,11 0,1 3,6 4,6 1,0 1,-2 1,-3l0 0 0 4c1,0 1,-3 1,-3l0 -1 -1 -9 0 0 0 -1 1 0c0,0 0,0 0,1l0 2 1 3c0,1 0,3 1,5 0,1 -1,2 -1,3 0,1 0,1 1,2l0 1 1 0 0 -14c0,-8 -1,-17 0,-24zm-30 -2c0,0 3,0 4,-1 0,0 0,0 0,-1l-2 0c1,0 1,0 1,-1 0,0 1,0 2,0 1,-2 2,-3 3,-5 1,-1 3,-4 3,-4l-4 0c-1,0 -2,1 -3,2 0,1 -1,2 -1,3 -1,1 -3,6 -3,7zm54 -11l0 -1c0,-1 1,-2 0,-3l-1 0 0 20 0 3 0 4 0 0 0 2 0 2c0,0 0,2 0,4 1,5 0,14 1,17 2,-2 2,-7 2,-11l0 0c0,-4 -1,-6 -1,-10 0,-2 1,-8 2,-9 -1,3 -2,7 -1,9 0,3 0,5 0,7 0,1 1,4 1,6 0,5 0,5 0,5 -1,2 -2,3 -2,5l2 -2c1,-3 2,-5 1,-8l1 0c1,6 0,1 -1,7l2 -3c0,0 2,-3 2,-3 1,-2 1,-3 2,-4 2,-4 3,-8 3,-12l-1 -10 -1 -3c-1,-3 -4,-9 -6,-12l0 4 -1 -5 -1 0c0,3 0,6 0,8 1,2 1,4 1,7 0,1 0,1 0,1 0,-4 -1,-7 -2,-10l-1 -1 0 -4 0 -3 0 0 -1 3 0 0zm-59 8c0,-2 5,-8 6,-10 -1,0 -1,0 -1,0l-1 0c-2,0 -11,2 -12,2l4 0 0 1c-1,0 -5,0 -5,1l2 0 3 -1c1,0 1,1 2,1l4 0 0 0c-2,0 -2,1 -4,1 -1,0 -2,-1 -4,-1l-1 1c-2,0 -3,1 -4,1 0,1 -4,5 -4,8l4 0c0,1 -1,1 -1,1l-3 0c0,1 4,1 5,1 2,0 5,0 6,0l2 0 0 -1c-1,0 -4,-1 -5,-1 -1,-1 -3,-2 -5,-1 2,-3 6,1 8,1l2 0c1,-1 1,-1 1,-1 -1,0 -1,0 -2,0 0,0 0,0 -1,0l3 -2c-1,-2 -6,1 -8,-1l5 0 2 0c1,-1 1,0 2,0zm-14 -2c1,-3 3,-5 4,-8 -1,1 -4,5 -5,7 -2,3 -4,6 -4,8 -1,2 -1,4 -1,5 0,3 0,3 0,6 0,2 2,9 2,11l3 5c0,-1 -2,-6 -2,-7 -2,-5 -2,-11 -1,-16 1,-4 2,-8 4,-11zm62 -13c-3,0 -8,1 -9,3 0,1 -1,3 -1,4 -1,2 0,3 0,5 0,3 1,5 1,9l-1 3 -1 0c1,-2 1,-13 0,-13 0,3 0,7 0,9 0,2 0,4 0,5 0,1 0,3 0,5 0,3 0,7 0,9 0,3 0,7 0,10l0 6 -1 0c1,1 2,3 2,4l0 1c1,0 2,-3 2,-4l0 -3 0 1 0 2c1,2 0,3 0,4 2,1 4,2 7,2l1 0c0,-1 0,-1 -1,-2l0 -1c0,-1 1,-3 2,-4l-1 5 0 0c0,1 0,1 1,1 1,0 2,0 2,0 0,-2 1,-2 1,-4 0,0 1,0 1,1l0 1c0,0 -1,0 -1,1 2,0 2,-3 2,-4 1,-1 -1,-2 1,-3l0 5 1 1c0,-2 1,-3 1,-6 0,-2 0,-5 0,-7 0,-4 0,-11 0,-15l0 -2c0,-4 0,-23 -1,-24l0 3c-1,-1 -1,-5 -2,-7l0 0 0 3 -1 4c0,0 0,0 0,0l0 -4 0 -2c-1,1 -1,2 -1,4 0,-1 -1,-2 -1,-3 0,-2 0,-1 0,-3 -2,0 1,0 -2,0 -2,6 1,12 1,18 0,4 -1,7 -4,9 0,-1 2,-3 2,-4 -2,-4 0,-10 0,-13l0 0 1 2 0 2c0,2 -1,4 -1,6 0,1 0,1 1,2l0 -6 0 -4c0,-2 -2,-4 -2,-6 0,-2 0,-4 1,-6zm-62 6c0,0 3,-3 3,-4l-4 2 -2 2 -1 2 3 -1 0 0 -1 0c0,-1 0,-1 1,-1l1 0zm84 0c-1,-2 -9,-8 -13,-8 0,0 0,0 0,1l0 1c4,0 9,4 12,8l1 -2zm-34 -4l-1 0 5 -3c-4,1 -10,6 -12,8l1 2c4,-6 5,-5 12,-9l0 -1 -5 3zm-1 -5c-4,2 -11,5 -12,8l4 1 2 -2 0 0 -3 -1 0 0 4 0 2 -1c-3,-1 -1,0 -2,-1l3 0 0 0 -1 0c0,-1 1,-1 1,-1l1 0 5 -2c-2,-1 -3,-1 -4,-1zm7 2c0,0 0,0 0,1 1,0 3,-1 4,-1 1,-1 2,0 3,0 3,-1 5,0 7,0l0 -1c0,0 0,0 0,-1 -2,0 -9,-1 -14,2zm-25 5c0,0 3,-3 3,-3l1 0c0,-1 5,-5 6,-5l0 0 -2 0c-1,0 -5,3 -6,3 -1,1 -5,4 -5,4 0,1 2,1 3,1zm-5 -7c2,-1 4,0 5,-1 -1,0 0,0 -1,0l0 0c-2,0 -6,0 -9,1l-4 1 0 0 3 0 1 0 4 0 0 0 0 0c-1,0 -3,1 -6,1 -2,0 -6,-1 -6,0l2 1 0 0c-1,1 -3,1 -4,2l4 0 1 1 -3 -1 0 1 -4 -1 -1 2 4 0 7 -1 3 0 1 -1c-1,0 -1,0 -1,0l-3 0 0 0 1 -1 3 0 6 -4c-1,0 -1,0 -2,0l-1 0 0 0zm27 52c0,-3 -2,-5 -1,-8 0,-3 0,-7 -1,-10l0 0 1 0c1,2 1,7 0,9 0,3 2,5 2,8 0,0 0,0 -1,1zm10 3c1,0 1,0 2,0 3,-3 -2,-8 -4,-6 0,1 0,4 2,6zm-3 -8l-1 -1c-1,1 -1,2 -1,3 0,2 0,3 1,5 1,0 2,1 3,1 -2,-2 -3,-7 -2,-8zm-3 10l0 -1c0,-1 -2,-3 -2,-3l0 0c1,-1 1,0 2,0 -1,-2 0,-6 2,-8 1,-1 4,-2 6,-2 1,0 2,0 3,2 0,1 1,2 1,3 0,2 0,4 -1,5 -1,2 -1,3 -3,4l-2 0c0,0 -3,-2 -4,-2l0 2c1,1 1,2 0,3l-2 -3zm-5 -50c0,0 -1,4 -1,4 -1,0 0,-2 0,-3l1 -1zm-40 111c-4,-4 -6,-8 -6,-10l-1 0c0,3 3,10 6,13 1,0 2,0 2,-1 0,0 -1,-1 -1,-2zm-14 -10c2,3 3,6 5,9 1,1 2,2 3,3 1,1 1,1 1,1 1,0 2,0 2,0 -2,-3 -5,-8 -7,-12l-4 -1zm-10 0l3 6 5 6 5 1c0,-1 -3,-4 -4,-5 -1,-2 -2,-4 -3,-6l-1 -2 -4 0 -1 0zm72 -5c-1,-2 0,-1 -2,-2 0,0 -2,7 -2,7 -1,1 -3,5 -3,6l1 2c2,-1 6,-10 6,-13zm-7 4c0,2 -3,6 -3,6l1 0c1,0 4,-6 5,-7l0 -5 0 0c0,1 -2,5 -3,6zm-70 1c-1,-1 -1,-1 -2,-1 -1,0 -2,0 -3,-1 -1,0 -4,-1 -5,-1 1,1 6,3 8,3l2 0zm-4 0c-2,0 -4,-1 -5,-2 -3,-2 -2,-2 -6,-1 1,2 1,4 4,6 1,0 6,1 6,2l-6 -1c1,0 7,4 8,5 3,1 6,2 9,3 -2,-4 -3,-1 -8,-5l6 2c0,-1 -1,-3 -2,-4 -1,-1 0,-1 -2,-3l-3 0 4 -1 0 0 -2 0 -6 0 0 0 0 -1 3 1 0 -1zm-21 -8c1,3 2,6 6,7l-3 -4 -3 -3zm99 -12c0,6 0,9 -1,12l1 -1c0,-2 1,-6 1,-8l-1 -3zm-66 14c0,0 0,1 0,0l0 -1 0 0 -1 -6 -2 -1 1 -1 1 1c1,0 1,0 1,-1l0 0 -4 1 -1 0 0 2 2 1c-1,0 -1,0 -2,0l0 0 2 9 0 0 5 0 -1 -1 -1 0c-1,0 -2,0 -2,-1 1,0 0,0 1,0 1,0 1,-1 2,-1l0 -1 -1 0zm14 -14l-2 0c0,2 -1,13 1,19l2 0c-2,-7 -2,-13 -1,-19zm-9 6c1,0 1,0 2,-1l-2 2 0 6 2 1c-1,0 -1,1 0,2l-1 -1c0,3 2,4 5,4 -2,-7 -1,-14 -1,-20l-1 0 -4 0c0,1 0,3 0,4l5 1c0,2 -3,0 -4,0l-1 0c-1,1 -1,1 0,2zm65 6c0,-2 1,-6 1,-8 0,-3 -1,-5 -1,-8 -1,0 -2,1 -3,1 0,1 1,4 1,6l-1 8c0,0 2,1 3,1zm-70 -8c-1,-3 0,-5 0,-6 -1,0 -2,0 -5,0 0,3 -1,6 0,7 1,0 3,-1 5,-1zm-21 -7l0 0 -1 0c2,3 9,2 10,4 -1,-1 -3,-2 -6,-1 -2,0 -5,-1 -6,-2l0 2 5 1 0 0 -6 0 0 0 3 1 0 0 -3 0 0 4 4 1 0 0 -4 0c1,0 3,1 5,1l-1 1c-1,0 -2,0 -3,0l-1 0c1,1 1,3 1,4l2 0c3,0 7,2 9,2l0 0 -1 0c-1,0 -8,-2 -9,-1 1,0 6,1 7,2 2,1 6,1 7,1l-2 -8 0 0 -3 -1 -2 0 5 -1 0 0c-1,0 -4,0 -4,-1 0,0 0,0 1,0l2 0 0 0 1 0 0 -4 0 -1 -3 -2 0 0 3 1 1 -2 -6 -1 0 0 -5 0zm-11 2c2,0 1,0 2,-2 0,0 -1,0 -1,0l-2 0c-1,0 -1,4 -1,5l0 4 0 4c2,1 2,1 4,1l1 0c-1,-3 -1,-7 -1,-10 -1,-1 -1,-2 -2,-2l0 0zm32 -3l1 -3 -4 0c0,0 0,1 -1,1l0 2 0 0 3 0 1 0zm69 -1c0,-2 -2,-6 -2,-7 -1,-2 -1,-2 -2,-4 0,-1 -2,-2 -2,-2 0,0 -1,1 -1,2 2,3 4,7 5,10l0 1 2 0zm-57 3c3,1 2,0 3,-2 0,-1 1,-2 1,-3 1,-4 3,-5 4,-8l-1 -2c-3,5 -5,7 -7,15zm-6 -5l3 0 0 0c-1,0 -2,0 -3,1l-1 3 2 0 4 1 2 -7 -3 0 0 0 0 -1c2,0 2,0 4,0l0 -1 -5 0 1 -1c3,0 4,0 5,0 0,-1 0,0 1,-4l0 0 -1 -1 -3 0 0 0 5 0 0 -1c0,-1 -3,-1 -4,-1 -3,3 -5,7 -7,12zm-35 2c1,-4 3,-6 4,-9l-2 0c1,-2 3,0 3,-2l-3 0c-2,1 -3,4 -4,6 0,0 -2,5 -2,6l4 -1zm56 -1c0,-2 0,-5 0,-7 0,-2 0,-5 -1,-6l0 2 0 0c0,5 -2,6 -2,8l0 0c0,1 2,4 2,6l-1 0c0,-1 -2,-6 -2,-7l0 0c0,-2 2,-4 2,-6l-1 -1 0 -1c-1,0 -2,5 -2,6 0,1 0,1 0,2l0 0 1 4 -1 0 -1 -2c0,0 0,0 0,1l0 1c1,4 1,5 1,7l-1 9c0,-2 0,-3 0,-4 0,-1 1,-3 1,-4 -1,-5 -3,-9 -1,-13 1,-1 1,-3 1,-4 -2,1 -4,6 -5,8 -1,1 -1,4 -2,5 -1,4 0,9 0,13 1,4 2,9 3,12 0,0 2,3 4,5 1,0 1,-2 1,-3l0 0 0 5c1,-1 2,-4 2,-4l0 0 -2 -7 0 -4 1 0c0,1 0,1 0,1l0 3c0,3 1,5 2,7 0,1 -1,2 -1,2 -1,2 -1,2 1,3l0 1 1 0 0 -13c0,-9 -1,-17 0,-25zm-30 -2c0,0 3,0 4,0 0,-1 0,-1 0,-1l-2 0c1,-1 1,-1 1,-1 0,0 1,-1 2,-1 1,-1 2,-3 3,-5 1,0 3,-3 3,-4l-4 0c-1,1 -2,2 -3,3 0,1 -1,2 -1,3 -1,0 -3,5 -3,6zm54 -10l0 -2c0,-1 1,-2 0,-2l-1 0 0 19 0 3 0 4 0 0 0 2 0 2c0,0 0,3 0,4 1,6 0,15 1,18 2,-2 2,-7 2,-11l0 -1c0,-3 -1,-5 -1,-9 0,-2 1,-8 2,-9 -1,2 -1,7 -1,9 0,2 1,4 1,7 0,1 0,4 0,6 0,5 0,4 0,5 -1,1 -1,2 -2,3l1 0c1,-3 3,-4 2,-8l0 0c1,6 1,2 -1,8l3 -4c0,0 2,-3 2,-4 1,-1 1,-2 2,-4 2,-3 3,-7 3,-12l0 -9 -2 -4c-1,-3 -4,-9 -6,-11l0 4 -1 -5 -1 -1c0,3 0,6 0,8 1,3 1,5 1,8 0,0 0,0 0,0 0,-3 -1,-6 -2,-10l0 0 -1 -5 0 -3 0 0 -1 4 0 0zm-59 7c0,-2 5,-7 6,-9 -1,0 -1,0 -1,0l-1 0c-2,0 -11,1 -11,2l4 0 0 0c-2,0 -6,0 -6,2l2 -1 3 0c1,0 1,0 2,0l4 0 0 1c-2,0 -2,0 -4,0 -1,0 -2,0 -4,0l-1 0c-2,0 -3,1 -4,1 0,1 -4,6 -4,8l4 1c0,0 -1,0 -1,0l-3 1c0,1 4,0 5,0 3,0 5,1 6,1l2 0 0 -2c-1,1 -4,0 -5,-1 -1,-1 -3,-1 -5,-1 2,-2 6,1 8,1l2 0c1,0 1,0 1,-1 -1,0 -1,0 -2,0 0,0 0,0 -1,0l3 -1c-1,-2 -6,0 -8,-2l5 0 2 0c1,0 1,0 2,0zm-14 -2c1,-2 3,-5 4,-7 -1,0 -4,5 -5,7 -2,2 -4,6 -4,8 -1,1 -1,4 -1,5 0,2 0,3 0,5 0,3 2,9 2,12l3 4c0,-1 -2,-5 -2,-6 -1,-6 -2,-11 -1,-17 1,-4 2,-7 4,-11zm32 -6c1,-1 2,-2 2,-3 1,-1 2,-1 2,-2 -2,1 -4,4 -5,6 -2,2 -3,4 -4,7 -3,4 -4,12 -4,17 0,6 3,13 5,18 2,3 2,4 4,7 1,1 2,2 3,3 0,0 0,0 0,0l1 0c-4,-6 -6,-10 -8,-16 -1,-3 -2,-7 -2,-9 0,-6 0,-9 1,-15 0,-3 3,-9 5,-13zm-32 -1c0,0 3,-2 3,-3l-4 2 -1 1 -2 3 4 -1 0 -1 -2 0c0,0 0,-1 1,-1l1 0zm84 1c-1,-3 -9,-9 -13,-9 0,1 0,1 0,1l0 1c4,1 10,5 12,8l1 -1zm-68 15c1,-3 3,-10 5,-12 0,-1 2,-3 3,-5 0,0 3,-4 3,-4 -1,0 -3,2 -4,3 -1,1 -4,6 -5,8 -3,4 -5,13 -5,19l0 2c0,3 1,6 1,9 1,3 2,4 3,6 1,2 2,5 3,6 1,1 5,7 6,7 -4,-7 -10,-16 -10,-26 -1,-3 -1,-10 0,-13zm34 -19l-1 0 5 -4c-4,1 -10,6 -12,9l1 2c5,-6 5,-6 12,-9l0 -1 -5 3zm-1 -6c-4,2 -11,5 -12,8l4 1 2 -1 0 -1 -3 -1 0 0 5 0 1 -1c-3,-1 -1,0 -2,-1l3 1 0 -1 -1 0c1,0 1,-1 1,-1l1 1 5 -2c-2,-2 -3,-1 -4,-2zm7 2c0,1 0,1 0,1 1,0 3,0 4,-1 1,0 2,0 3,0 3,0 5,0 7,1l0 -2c0,0 0,0 0,0 -2,0 -9,-1 -14,1zm-25 6c0,0 3,-3 3,-4l1 1c0,-1 5,-5 6,-5l0 -1 -2 0c-1,0 -5,3 -6,4 0,0 -5,4 -5,4 0,0 2,1 3,1zm-5 -8c2,0 4,0 5,-1 -1,0 0,0 -1,0l0 0c-2,1 -6,0 -9,2l-4 0 0 1 4 0 4 -1 0 0 0 1c-1,0 -3,0 -6,0 -2,1 -5,0 -6,1l2 0 0 1c-1,0 -3,0 -4,1l5 1 0 0 -3 0 0 0 -4 0 -1 1 4 0 7 -1 3 0 1 -1c-1,0 -1,0 -1,0l-3 0 0 0 1 0 3 -1 6 -3c-1,0 -1,0 -2,0l0 0 -1 -1zm27 52c0,-3 -1,-5 -1,-8 0,-3 0,-6 -1,-9l0 -1 1 0c1,2 1,7 0,9 0,3 2,6 2,8 0,1 0,1 -1,1zm10 3c1,1 1,1 2,0 3,-3 -2,-7 -4,-6 0,2 1,5 2,6zm-3 -8l-1 0c0,0 -1,1 -1,2 0,2 0,4 1,5 1,1 2,1 3,1 -2,-1 -3,-6 -2,-8zm-8 -40c0,1 -1,5 -1,5 -1,-1 1,-3 0,-4l1 -1zm-100 86c-2,-3 -3,-6 -4,-10 -9,4 -19,4 -27,2 -1,-1 -2,-1 -3,-1l3 12c10,1 21,0 31,-3zm-5 -14c-3,-9 -5,-17 -6,-26 -9,-1 -20,0 -31,5l0 0 0 0 0 0c-2,0 -4,1 -5,2 -2,2 -4,3 -5,4 -8,5 -11,12 -9,18l0 0 0 0 0 0 0 0 0 0 0 0 0 0 0 0 0 0 0 0 0 0 0 0 0 0 0 0 0 0 0 0 0 0 0 0 0 0 0 0 0 0 0 0 0 0 0 0 0 0 0 0 0 0 0 0 0 0 0 0 0 0 0 0 0 0 0 0 0 0 0 0 0 0 0 0 0 0c2,4 5,6 8,8 4,3 10,5 17,6l-4 -17 5 -3 0 0 0 0c0,1 1,2 2,2 1,1 2,2 4,2 6,2 15,2 24,-1zm260 -26c-1,9 -2,17 -5,26 8,3 17,3 24,1 1,0 2,-1 3,-2 1,0 2,-1 3,-2l0 0 0 0 4 3 -3 17c6,-1 12,-3 17,-6 1,0 2,-1 2,-2 1,0 2,-1 3,-2l0 0 0 0 0 0 0 0 0 0 0 0 0 0 0 0 0 0 0 0 0 0 0 0 0 -1 0 0 0 0 0 0 0 0 0 0 0 0 1 0 0 0 0 0 0 0 0 0 0 0 0 0 0 0 0 0 0 -1 0 0 0 0 0 0 0 0 0 0 1 0 0 0 0 0 0 0 0 0 0 0 0 0 0 -1 0 0 0 0 0 0 0 0 0 0 0 0 0 0 0 0 0 0 0 0 0 0 0 0 0 -1 0 0 0 0 0 0 0 0 0 0 0 0 0 0 0 0 0 0c2,-6 -1,-13 -8,-18 -1,-1 -3,-2 -5,-4 -2,-1 -4,-2 -6,-2l0 0 0 0 0 0c-10,-5 -21,-6 -31,-5zm-6 30c-2,4 -3,7 -4,10 1,0 2,0 3,1 4,1 7,1 11,2 5,1 11,1 17,0l2 -12c-1,0 -1,0 -2,1 -8,2 -18,2 -27,-2zm-246 9c1,-1 2,-1 3,-2 -5,-12 -8,-25 -10,-38 -3,-20 -3,-42 -2,-61 0,-7 1,-13 1,-20 0,-12 1,-25 1,-37l0 -1 0 0 1 -1c41,-20 83,-29 125,-28 42,0 84,10 126,28l0 1 1 1c0,12 0,25 1,37 0,7 0,13 1,20l0 0 0 0c0,17 0,35 -1,53 -2,16 -5,32 -11,46 1,1 2,1 3,2 20,-47 10,-109 10,-162 -90,-39 -176,-41 -260,0 0,53 -10,115 11,162zm181 65c-2,0 -4,0 -5,-1 -11,7 -23,14 -34,18 -4,1 -8,2 -11,3 -4,0 -8,1 -11,1l-1 0 0 0c-18,-1 -38,-10 -55,-21 -2,0 -3,1 -5,1 20,14 42,23 60,24l0 0c19,-1 41,-10 62,-25zm-9 -1c-16,-3 -33,-6 -54,-6 -19,0 -36,3 -51,6 16,11 35,19 52,19l0 0c4,0 7,0 11,-1 4,-1 7,-2 11,-3 11,-3 21,-9 31,-15z"/>
 </g>
</svg>
